<svg width="38" height="39" viewBox="0 0 38 39" fill="none" xmlns="http://www.w3.org/2000/svg">
<path d="M19 21.2969C21.6924 21.2969 23.875 19.1143 23.875 16.4219C23.875 13.7295 21.6924 11.5469 19 11.5469C16.3076 11.5469 14.125 13.7295 14.125 16.4219C14.125 19.1143 16.3076 21.2969 19 21.2969Z" stroke="white" stroke-width="2" stroke-linecap="round" stroke-linejoin="round"/>
<path d="M19 3.42188C15.5522 3.42188 12.2456 4.79151 9.80761 7.22949C7.36964 9.66746 6 12.9741 6 16.4219C6 19.4964 6.65325 21.5081 8.4375 23.7344L19 35.9219L29.5625 23.7344C31.3467 21.5081 32 19.4964 32 16.4219C32 12.9741 30.6304 9.66746 28.1924 7.22949C25.7544 4.79151 22.4478 3.42188 19 3.42188Z" stroke="white" stroke-width="2" stroke-linecap="round" stroke-linejoin="round"/>
</svg>
