<svg width="38" height="38" viewBox="0 0 38 38" fill="none" xmlns="http://www.w3.org/2000/svg">
<path d="M10.2303 5.84386C10.1094 5.68842 9.9569 5.56047 9.78281 5.46851C9.60873 5.37655 9.41707 5.32268 9.22057 5.31049C9.02407 5.29829 8.82722 5.32804 8.6431 5.39777C8.45898 5.4675 8.2918 5.5756 8.15267 5.7149L6.0362 7.83342C5.04756 8.82411 4.68322 10.2262 5.11511 11.4564C6.90967 16.5472 9.82529 21.1697 13.6465 24.9822C17.459 28.8034 22.0815 31.719 27.1723 33.5135C28.4024 33.9454 29.8045 33.5811 30.7952 32.5925L32.9117 30.476C33.051 30.3369 33.1591 30.1697 33.2288 29.9856C33.2986 29.8014 33.3283 29.6046 33.3161 29.4081C33.3039 29.2116 33.2501 29.0199 33.1581 28.8458C33.0661 28.6718 32.9382 28.5192 32.7828 28.3984L28.0606 24.7263C27.8944 24.5978 27.7013 24.5085 27.4956 24.4653C27.29 24.422 27.0773 24.4259 26.8734 24.4766L22.3908 25.5962C21.7924 25.7448 21.1658 25.7363 20.5716 25.5717C19.9774 25.4071 19.4358 25.092 18.9991 24.6567L13.9719 19.6275C13.5363 19.1911 13.2208 18.6495 13.0558 18.0553C12.8909 17.4611 12.8821 16.8344 13.0304 16.2359L14.1521 11.7532C14.2028 11.5493 14.2066 11.3366 14.1634 11.131C14.1201 10.9254 14.0309 10.7322 13.9024 10.566L10.2303 5.84386ZM6.60728 4.17156C6.96547 3.81325 7.3958 3.53525 7.86967 3.356C8.34355 3.17676 8.85013 3.10038 9.35579 3.13193C9.86145 3.16349 10.3546 3.30226 10.8025 3.53903C11.2504 3.77579 11.6429 4.10514 11.9537 4.5052L15.6258 9.2253C16.2992 10.0911 16.5367 11.219 16.2706 12.2833L15.1509 16.766C15.0935 16.9982 15.0968 17.2413 15.1606 17.4718C15.2244 17.7024 15.3466 17.9126 15.5153 18.0821L20.5445 23.1113C20.7143 23.2804 20.9248 23.4027 21.1557 23.4666C21.3867 23.5304 21.6302 23.5335 21.8627 23.4757L26.3433 22.356C26.8686 22.2255 27.4167 22.2156 27.9463 22.3273C28.476 22.439 28.9734 22.6692 29.4013 23.0008L34.1214 26.6729C35.8183 27.9931 35.9738 30.5005 34.4551 32.0173L32.3386 34.1338C30.8239 35.6484 28.56 36.3137 26.4497 35.5707C21.0473 33.6723 16.1427 30.5799 12.1011 26.5235C8.04495 22.4824 4.95249 17.5785 3.0539 12.1769C2.31293 10.0686 2.97817 7.80272 4.49286 6.28803L6.60728 4.17156Z" fill="white"/>
</svg>
