<svg width="76" height="76" viewBox="0 0 76 76" fill="none" xmlns="http://www.w3.org/2000/svg">
<rect width="76" height="76" rx="38" fill="#295D70"/>
<path d="M35.845 39.275C37.6705 35.9796 41.1792 34.0356 43.2181 31.1195C45.3755 28.0612 44.1664 22.3477 38.0498 22.3477C34.0432 22.3477 32.0754 25.3822 31.2457 27.8953L25.1053 25.3111C26.7886 20.2614 31.3642 15.9229 38.0261 15.9229C43.5974 15.9229 47.4144 18.4596 49.3584 21.6364C51.0179 24.3628 51.9899 29.46 49.4295 33.2532C46.5846 37.4495 43.8582 38.7297 42.3883 41.4324C41.7956 42.523 41.5585 43.2342 41.5585 46.7429H34.707C34.6833 44.8937 34.3988 41.8829 35.845 39.275ZM42.7913 56.2261C42.7913 58.8339 40.6576 60.9676 38.0498 60.9676C35.4419 60.9676 33.3082 58.8339 33.3082 56.2261C33.3082 53.6182 35.4419 51.4845 38.0498 51.4845C40.6576 51.4845 42.7913 53.6182 42.7913 56.2261Z" fill="white"/>
</svg>
