<svg width="76" height="76" viewBox="0 0 76 76" fill="none" xmlns="http://www.w3.org/2000/svg">
<rect width="76" height="76" rx="38" fill="#295D70"/>
<path d="M20.9135 53.7955C19.8809 53.7955 19.0194 53.4574 18.3291 52.7811C17.6387 52.1048 17.2928 51.2602 17.2913 50.2472V26.6035C17.2913 25.592 17.6372 24.7481 18.3291 24.0718C19.0209 23.3955 19.8817 23.0567 20.9113 23.0552H54.018C55.049 23.0552 55.9098 23.3941 56.6001 24.0718C57.2905 24.7496 57.6365 25.5935 57.638 26.6035V50.2494C57.638 51.2595 57.292 52.1034 56.6001 52.7811C55.9083 53.4589 55.0475 53.797 54.018 53.7955H20.9135ZM37.4646 38.3375C37.6514 38.3375 37.8262 38.3097 37.9891 38.2541C38.1505 38.1985 38.3104 38.1304 38.4688 38.0499L54.6725 27.6575C54.8847 27.5316 55.0229 27.3596 55.0871 27.1415C55.1514 26.9234 55.1394 26.706 55.0513 26.4893C54.9945 26.2068 54.8062 26.0019 54.4864 25.8745C54.1681 25.7486 53.8596 25.7743 53.5607 25.9514L37.4646 36.2296L21.3708 25.9536C21.0719 25.775 20.77 25.7369 20.4652 25.8394C20.1604 25.9419 19.9646 26.1439 19.8779 26.4454C19.7913 26.6709 19.7801 26.8999 19.8443 27.1327C19.9086 27.3654 20.046 27.5411 20.2567 27.6597L36.4604 38.0499C36.6188 38.1304 36.7787 38.1985 36.9401 38.2541C37.103 38.3083 37.2778 38.3353 37.4646 38.3353" fill="white"/>
</svg>
