<svg width="1011" height="628" viewBox="0 0 1011 628" fill="none" xmlns="http://www.w3.org/2000/svg">
<path d="M537.756 474.734C490.305 582.405 210.588 680.844 71.9011 437.174C182.434 480.393 230.808 432.489 268.526 439.256C334.347 451.065 352.922 550.966 537.756 474.734Z" fill="#1A3349"/>
<path d="M45.6862 296.672C72.7286 329.438 167.396 399.635 376.987 284.207C346.711 309.455 220.658 437.174 105.206 399.635C57.4733 384.116 42.5085 335.333 45.6862 296.672Z" fill="#295D70"/>
<path d="M572.079 219.102C499.67 3.16769 145.205 -42.3218 52.409 246.859C276.206 415.266 394.75 152.583 572.079 219.102Z" fill="#38929C"/>
<path d="M464.03 282.653C463.446 277.72 461.077 273.891 456.924 271.165C452.77 268.44 447.676 267.077 441.64 267.077C437.227 267.077 433.365 267.791 430.055 269.218C426.778 270.646 424.214 272.609 422.365 275.108C420.548 277.607 419.639 280.446 419.639 283.626C419.639 286.287 420.272 288.575 421.537 290.489C422.835 292.371 424.49 293.945 426.502 295.211C428.514 296.444 430.623 297.466 432.83 298.277C435.036 299.056 437.064 299.689 438.914 300.175L449.038 302.901C451.634 303.583 454.522 304.524 457.702 305.724C460.915 306.925 463.982 308.564 466.902 310.641C469.855 312.685 472.289 315.313 474.203 318.526C476.118 321.738 477.075 325.681 477.075 330.354C477.075 335.74 475.663 340.608 472.84 344.956C470.05 349.304 465.961 352.76 460.574 355.324C455.22 357.887 448.714 359.169 441.056 359.169C433.917 359.169 427.735 358.017 422.511 355.713C417.319 353.409 413.23 350.197 410.245 346.076C407.292 341.954 405.621 337.168 405.231 331.717H417.692C418.016 335.481 419.282 338.596 421.489 341.062C423.728 343.496 426.551 345.313 429.958 346.514C433.398 347.682 437.097 348.266 441.056 348.266C445.664 348.266 449.801 347.52 453.468 346.027C457.135 344.502 460.039 342.393 462.181 339.699C464.322 336.973 465.393 333.793 465.393 330.159C465.393 326.849 464.468 324.156 462.619 322.079C460.769 320.002 458.335 318.315 455.317 317.017C452.3 315.719 449.038 314.583 445.534 313.61L433.268 310.105C425.48 307.866 419.314 304.67 414.772 300.516C410.229 296.363 407.957 290.927 407.957 284.21C407.957 278.629 409.466 273.761 412.484 269.608C415.534 265.422 419.623 262.177 424.75 259.873C429.909 257.537 435.669 256.368 442.029 256.368C448.454 256.368 454.165 257.52 459.163 259.824C464.16 262.096 468.119 265.211 471.039 269.17C473.992 273.129 475.55 277.623 475.712 282.653H464.03ZM495.364 357.417V282.653H506.852V357.417H495.364ZM501.205 270.192C498.966 270.192 497.036 269.429 495.413 267.904C493.823 266.379 493.028 264.546 493.028 262.404C493.028 260.262 493.823 258.429 495.413 256.904C497.036 255.379 498.966 254.616 501.205 254.616C503.444 254.616 505.359 255.379 506.949 256.904C508.571 258.429 509.383 260.262 509.383 262.404C509.383 264.546 508.571 266.379 506.949 267.904C505.359 269.429 503.444 270.192 501.205 270.192ZM539.378 312.441V357.417H527.891V282.653H538.989V294.335H539.963C541.715 290.538 544.376 287.488 547.945 285.184C551.515 282.847 556.122 281.679 561.769 281.679C566.831 281.679 571.26 282.718 575.057 284.794C578.854 286.839 581.806 289.954 583.916 294.14C586.025 298.293 587.08 303.55 587.08 309.91V357.417H575.592V310.689C575.592 304.816 574.067 300.24 571.017 296.963C567.967 293.653 563.781 291.998 558.459 291.998C554.792 291.998 551.515 292.793 548.627 294.383C545.771 295.973 543.516 298.293 541.861 301.344C540.206 304.394 539.378 308.093 539.378 312.441ZM638.443 358.974C631.694 358.974 625.772 357.368 620.677 354.156C615.615 350.943 611.656 346.449 608.801 340.673C605.977 334.897 604.566 328.147 604.566 320.424C604.566 312.636 605.977 305.838 608.801 300.029C611.656 294.221 615.615 289.71 620.677 286.498C625.772 283.285 631.694 281.679 638.443 281.679C645.193 281.679 651.099 283.285 656.161 286.498C661.256 289.71 665.214 294.221 668.038 300.029C670.893 305.838 672.321 312.636 672.321 320.424C672.321 328.147 670.893 334.897 668.038 340.673C665.214 346.449 661.256 350.943 656.161 354.156C651.099 357.368 645.193 358.974 638.443 358.974ZM638.443 348.655C643.57 348.655 647.789 347.341 651.099 344.713C654.409 342.084 656.859 338.628 658.449 334.345C660.039 330.062 660.834 325.421 660.834 320.424C660.834 315.427 660.039 310.77 658.449 306.454C656.859 302.139 654.409 298.65 651.099 295.989C647.789 293.329 643.57 291.998 638.443 291.998C633.316 291.998 629.098 293.329 625.788 295.989C622.478 298.65 620.028 302.139 618.438 306.454C616.848 310.77 616.053 315.427 616.053 320.424C616.053 325.421 616.848 330.062 618.438 334.345C620.028 338.628 622.478 342.084 625.788 344.713C629.098 347.341 633.316 348.655 638.443 348.655ZM718.087 358.974C711.857 358.974 706.357 357.401 701.586 354.253C696.816 351.073 693.085 346.595 690.391 340.819C687.698 335.01 686.351 328.147 686.351 320.229C686.351 312.377 687.698 305.562 690.391 299.786C693.085 294.01 696.833 289.548 701.635 286.401C706.438 283.253 711.987 281.679 718.282 281.679C723.149 281.679 726.995 282.49 729.818 284.113C732.673 285.703 734.847 287.52 736.34 289.564C737.865 291.576 739.05 293.231 739.893 294.529H740.867V257.731H752.354V357.417H741.256V345.93H739.893C739.05 347.292 737.849 349.012 736.291 351.089C734.734 353.133 732.511 354.967 729.623 356.589C726.735 358.179 722.89 358.974 718.087 358.974ZM719.645 348.655C724.253 348.655 728.147 347.455 731.327 345.053C734.507 342.62 736.924 339.261 738.579 334.978C740.234 330.662 741.062 325.681 741.062 320.035C741.062 314.453 740.25 309.57 738.628 305.384C737.005 301.165 734.604 297.888 731.424 295.551C728.244 293.183 724.317 291.998 719.645 291.998C714.777 291.998 710.721 293.247 707.476 295.746C704.264 298.212 701.846 301.571 700.224 305.822C698.634 310.04 697.839 314.778 697.839 320.035C697.839 325.356 698.65 330.191 700.272 334.54C701.927 338.856 704.361 342.295 707.573 344.859C710.818 347.39 714.842 348.655 719.645 348.655ZM806.334 358.974C799.13 358.974 792.916 357.384 787.692 354.204C782.5 350.992 778.492 346.514 775.669 340.77C772.878 334.994 771.483 328.277 771.483 320.619C771.483 312.961 772.878 306.211 775.669 300.37C778.492 294.497 782.419 289.921 787.448 286.644C792.511 283.334 798.416 281.679 805.166 281.679C809.06 281.679 812.905 282.328 816.702 283.626C820.498 284.924 823.954 287.033 827.07 289.954C830.185 292.842 832.667 296.671 834.517 301.441C836.366 306.211 837.291 312.085 837.291 319.061V323.929H779.66V313.999H825.609C825.609 309.781 824.766 306.016 823.078 302.707C821.423 299.397 819.054 296.784 815.972 294.87C812.921 292.955 809.32 291.998 805.166 291.998C800.591 291.998 796.632 293.134 793.289 295.405C789.979 297.644 787.432 300.565 785.647 304.167C783.863 307.769 782.97 311.63 782.97 315.751V322.371C782.97 328.017 783.944 332.804 785.891 336.73C787.87 340.624 790.612 343.593 794.117 345.638C797.621 347.649 801.694 348.655 806.334 348.655C809.352 348.655 812.078 348.234 814.511 347.39C816.978 346.514 819.103 345.216 820.888 343.496C822.673 341.744 824.052 339.569 825.025 336.973L836.123 340.089C834.955 343.853 832.992 347.163 830.233 350.018C827.475 352.841 824.068 355.048 820.012 356.638C815.955 358.196 811.396 358.974 806.334 358.974ZM886.112 358.974C878.908 358.974 872.694 357.384 867.469 354.204C862.277 350.992 858.27 346.514 855.447 340.77C852.656 334.994 851.261 328.277 851.261 320.619C851.261 312.961 852.656 306.211 855.447 300.37C858.27 294.497 862.196 289.921 867.226 286.644C872.288 283.334 878.194 281.679 884.944 281.679C888.838 281.679 892.683 282.328 896.479 283.626C900.276 284.924 903.732 287.033 906.847 289.954C909.962 292.842 912.445 296.671 914.294 301.441C916.144 306.211 917.069 312.085 917.069 319.061V323.929H859.438V313.999H905.387C905.387 309.781 904.543 306.016 902.856 302.707C901.201 299.397 898.832 296.784 895.749 294.87C892.699 292.955 889.097 291.998 884.944 291.998C880.368 291.998 876.409 293.134 873.067 295.405C869.757 297.644 867.21 300.565 865.425 304.167C863.64 307.769 862.748 311.63 862.748 315.751V322.371C862.748 328.017 863.721 332.804 865.668 336.73C867.648 340.624 870.39 343.593 873.894 345.638C877.399 347.649 881.471 348.655 886.112 348.655C889.13 348.655 891.855 348.234 894.289 347.39C896.755 346.514 898.881 345.216 900.665 343.496C902.45 341.744 903.829 339.569 904.803 336.973L915.901 340.089C914.732 343.853 912.769 347.163 910.011 350.018C907.253 352.841 903.846 355.048 899.789 356.638C895.733 358.196 891.174 358.974 886.112 358.974ZM934.543 385.453V282.653H945.641V294.529H947.004C947.847 293.231 949.016 291.576 950.508 289.564C952.033 287.52 954.208 285.703 957.031 284.113C959.886 282.49 963.748 281.679 968.615 281.679C974.91 281.679 980.459 283.253 985.262 286.401C990.064 289.548 993.812 294.01 996.506 299.786C999.199 305.562 1000.55 312.377 1000.55 320.229C1000.55 328.147 999.199 335.01 996.506 340.819C993.812 346.595 990.081 351.073 985.311 354.253C980.54 357.401 975.04 358.974 968.81 358.974C964.007 358.974 960.162 358.179 957.274 356.589C954.386 354.967 952.163 353.133 950.606 351.089C949.048 349.012 947.847 347.292 947.004 345.93H946.03V385.453H934.543ZM945.836 320.035C945.836 325.681 946.663 330.662 948.318 334.978C949.973 339.261 952.39 342.62 955.57 345.053C958.75 347.455 962.644 348.655 967.252 348.655C972.055 348.655 976.062 347.39 979.275 344.859C982.52 342.295 984.954 338.856 986.576 334.54C988.231 330.191 989.059 325.356 989.059 320.035C989.059 314.778 988.247 310.04 986.625 305.822C985.035 301.571 982.617 298.212 979.372 295.746C976.16 293.247 972.12 291.998 967.252 291.998C962.58 291.998 958.653 293.183 955.473 295.551C952.293 297.888 949.892 301.165 948.269 305.384C946.647 309.57 945.836 314.453 945.836 320.035Z" fill="black"/>
<path d="M436.583 399.793C436.291 397.327 435.107 395.413 433.03 394.05C430.953 392.687 428.406 392.005 425.388 392.005C423.182 392.005 421.251 392.362 419.596 393.076C417.957 393.79 416.676 394.772 415.751 396.021C414.842 397.27 414.388 398.69 414.388 400.28C414.388 401.61 414.704 402.754 415.337 403.712C415.986 404.653 416.813 405.439 417.819 406.072C418.825 406.689 419.88 407.2 420.983 407.605C422.087 407.995 423.101 408.311 424.025 408.555L429.088 409.918C430.386 410.258 431.83 410.729 433.42 411.329C435.026 411.929 436.559 412.749 438.019 413.787C439.496 414.809 440.713 416.124 441.67 417.73C442.627 419.336 443.106 421.307 443.106 423.644C443.106 426.337 442.4 428.771 440.989 430.945C439.593 433.119 437.549 434.847 434.856 436.129C432.178 437.411 428.925 438.051 425.096 438.051C421.527 438.051 418.436 437.475 415.824 436.323C413.228 435.172 411.183 433.565 409.691 431.505C408.214 429.444 407.379 427.051 407.184 424.325H413.414C413.577 426.207 414.209 427.765 415.313 428.998C416.432 430.215 417.844 431.123 419.547 431.724C421.267 432.308 423.117 432.6 425.096 432.6C427.4 432.6 429.469 432.227 431.302 431.48C433.136 430.718 434.588 429.663 435.659 428.317C436.729 426.954 437.265 425.364 437.265 423.546C437.265 421.891 436.802 420.545 435.878 419.506C434.953 418.468 433.736 417.624 432.227 416.975C430.718 416.326 429.088 415.758 427.335 415.272L421.202 413.519C417.308 412.4 414.226 410.802 411.954 408.725C409.683 406.648 408.547 403.931 408.547 400.572C408.547 397.781 409.301 395.348 410.81 393.271C412.335 391.178 414.38 389.555 416.943 388.403C419.523 387.235 422.403 386.651 425.583 386.651C428.796 386.651 431.651 387.227 434.15 388.379C436.648 389.515 438.628 391.072 440.088 393.052C441.564 395.031 442.343 397.278 442.424 399.793H436.583ZM467.924 437.954C464.322 437.954 461.215 437.159 458.603 435.569C456.007 433.963 454.003 431.724 452.591 428.852C451.196 425.964 450.498 422.605 450.498 418.776C450.498 414.947 451.196 411.572 452.591 408.652C454.003 405.715 455.966 403.428 458.481 401.789C461.012 400.134 463.965 399.306 467.34 399.306C469.287 399.306 471.209 399.631 473.108 400.28C475.006 400.929 476.734 401.984 478.291 403.444C479.849 404.888 481.09 406.802 482.015 409.187C482.94 411.572 483.402 414.509 483.402 417.998V420.431H454.587V415.466H477.561C477.561 413.357 477.14 411.475 476.296 409.82C475.468 408.165 474.284 406.859 472.743 405.902C471.217 404.945 469.416 404.466 467.34 404.466C465.052 404.466 463.073 405.034 461.401 406.17C459.746 407.289 458.473 408.749 457.58 410.55C456.688 412.351 456.242 414.282 456.242 416.343V419.652C456.242 422.476 456.729 424.869 457.702 426.832C458.692 428.779 460.063 430.264 461.815 431.286C463.567 432.292 465.604 432.795 467.924 432.795C469.433 432.795 470.796 432.584 472.012 432.162C473.246 431.724 474.308 431.075 475.201 430.215C476.093 429.339 476.783 428.252 477.269 426.954L482.818 428.511C482.234 430.393 481.253 432.048 479.873 433.476C478.494 434.888 476.791 435.991 474.763 436.786C472.734 437.565 470.455 437.954 467.924 437.954ZM492.139 437.175V399.793H497.688V405.439H498.078C498.759 403.59 499.992 402.089 501.777 400.937C503.562 399.785 505.574 399.209 507.813 399.209C508.234 399.209 508.762 399.217 509.395 399.233C510.027 399.25 510.506 399.274 510.83 399.306V405.147C510.636 405.099 510.19 405.026 509.492 404.928C508.81 404.815 508.088 404.758 507.326 404.758C505.509 404.758 503.886 405.139 502.458 405.902C501.047 406.648 499.927 407.687 499.1 409.017C498.289 410.331 497.883 411.832 497.883 413.519V437.175H492.139ZM549.344 399.793L535.521 437.175H529.68L515.856 399.793H522.086L532.405 429.582H532.795L543.114 399.793H549.344ZM556.925 437.175V399.793H562.669V437.175H556.925ZM559.846 393.563C558.726 393.563 557.761 393.182 556.95 392.419C556.155 391.656 555.757 390.74 555.757 389.669C555.757 388.598 556.155 387.681 556.95 386.919C557.761 386.156 558.726 385.775 559.846 385.775C560.965 385.775 561.923 386.156 562.718 386.919C563.529 387.681 563.934 388.598 563.934 389.669C563.934 390.74 563.529 391.656 562.718 392.419C561.923 393.182 560.965 393.563 559.846 393.563ZM588.375 437.954C584.871 437.954 581.853 437.127 579.322 435.472C576.791 433.817 574.844 431.537 573.481 428.633C572.118 425.729 571.436 422.411 571.436 418.679C571.436 414.882 572.134 411.532 573.529 408.628C574.941 405.707 576.904 403.428 579.419 401.789C581.95 400.134 584.903 399.306 588.278 399.306C590.906 399.306 593.275 399.793 595.384 400.767C597.493 401.74 599.221 403.103 600.568 404.855C601.915 406.608 602.75 408.652 603.075 410.988H597.331C596.893 409.285 595.92 407.776 594.411 406.462C592.918 405.131 590.906 404.466 588.375 404.466C586.136 404.466 584.173 405.05 582.485 406.218C580.814 407.37 579.508 409.001 578.567 411.11C577.642 413.203 577.18 415.661 577.18 418.484C577.18 421.372 577.634 423.887 578.543 426.029C579.468 428.17 580.766 429.834 582.437 431.018C584.124 432.202 586.104 432.795 588.375 432.795C589.868 432.795 591.223 432.535 592.439 432.016C593.656 431.497 594.687 430.75 595.53 429.777C596.374 428.803 596.974 427.635 597.331 426.272H603.075C602.75 428.479 601.947 430.466 600.665 432.235C599.4 433.987 597.721 435.382 595.628 436.421C593.551 437.443 591.133 437.954 588.375 437.954ZM627.144 437.954C623.543 437.954 620.435 437.159 617.823 435.569C615.227 433.963 613.223 431.724 611.812 428.852C610.417 425.964 609.719 422.605 609.719 418.776C609.719 414.947 610.417 411.572 611.812 408.652C613.223 405.715 615.187 403.428 617.702 401.789C620.233 400.134 623.186 399.306 626.56 399.306C628.507 399.306 630.43 399.631 632.328 400.28C634.227 400.929 635.955 401.984 637.512 403.444C639.07 404.888 640.311 406.802 641.236 409.187C642.161 411.572 642.623 414.509 642.623 417.998V420.431H613.808V415.466H636.782C636.782 413.357 636.36 411.475 635.516 409.82C634.689 408.165 633.505 406.859 631.963 405.902C630.438 404.945 628.637 404.466 626.56 404.466C624.273 404.466 622.293 405.034 620.622 406.17C618.967 407.289 617.693 408.749 616.801 410.55C615.909 412.351 615.463 414.282 615.463 416.343V419.652C615.463 422.476 615.949 424.869 616.923 426.832C617.912 428.779 619.283 430.264 621.036 431.286C622.788 432.292 624.824 432.795 627.144 432.795C628.653 432.795 630.016 432.584 631.233 432.162C632.466 431.724 633.529 431.075 634.421 430.215C635.314 429.339 636.003 428.252 636.49 426.954L642.039 428.511C641.455 430.393 640.473 432.048 639.094 433.476C637.715 434.888 636.011 435.991 633.983 436.786C631.955 437.565 629.676 437.954 627.144 437.954ZM711.522 402.908H705.486C705.129 401.172 704.505 399.647 703.612 398.333C702.736 397.019 701.665 395.915 700.4 395.023C699.15 394.115 697.763 393.433 696.238 392.979C694.713 392.524 693.123 392.297 691.468 392.297C688.45 392.297 685.716 393.06 683.266 394.585C680.832 396.11 678.894 398.357 677.45 401.326C676.022 404.296 675.308 407.938 675.308 412.254C675.308 416.57 676.022 420.212 677.45 423.181C678.894 426.151 680.832 428.398 683.266 429.923C685.716 431.448 688.45 432.21 691.468 432.21C693.123 432.21 694.713 431.983 696.238 431.529C697.763 431.075 699.15 430.401 700.4 429.509C701.665 428.6 702.736 427.489 703.612 426.175C704.505 424.844 705.129 423.319 705.486 421.599H711.522C711.068 424.147 710.24 426.426 709.039 428.438C707.839 430.45 706.346 432.162 704.561 433.573C702.777 434.969 700.773 436.031 698.55 436.762C696.343 437.492 693.983 437.857 691.468 437.857C687.217 437.857 683.437 436.818 680.127 434.742C676.817 432.665 674.213 429.712 672.314 425.883C670.416 422.054 669.467 417.511 669.467 412.254C669.467 406.997 670.416 402.454 672.314 398.625C674.213 394.796 676.817 391.843 680.127 389.766C683.437 387.689 687.217 386.651 691.468 386.651C693.983 386.651 696.343 387.016 698.55 387.746C700.773 388.476 702.777 389.547 704.561 390.959C706.346 392.354 707.839 394.058 709.039 396.07C710.24 398.065 711.068 400.345 711.522 402.908ZM735.683 437.954C732.308 437.954 729.347 437.151 726.8 435.545C724.268 433.938 722.289 431.691 720.861 428.803C719.45 425.915 718.744 422.54 718.744 418.679C718.744 414.785 719.45 411.386 720.861 408.482C722.289 405.577 724.268 403.322 726.8 401.716C729.347 400.11 732.308 399.306 735.683 399.306C739.057 399.306 742.01 400.11 744.541 401.716C747.089 403.322 749.068 405.577 750.48 408.482C751.908 411.386 752.621 414.785 752.621 418.679C752.621 422.54 751.908 425.915 750.48 428.803C749.068 431.691 747.089 433.938 744.541 435.545C742.01 437.151 739.057 437.954 735.683 437.954ZM735.683 432.795C738.246 432.795 740.355 432.137 742.01 430.823C743.665 429.509 744.89 427.781 745.685 425.639C746.48 423.498 746.878 421.178 746.878 418.679C746.878 416.18 746.48 413.852 745.685 411.694C744.89 409.536 743.665 407.792 742.01 406.462C740.355 405.131 738.246 404.466 735.683 404.466C733.119 404.466 731.01 405.131 729.355 406.462C727.7 407.792 726.475 409.536 725.68 411.694C724.885 413.852 724.487 416.18 724.487 418.679C724.487 421.178 724.885 423.498 725.68 425.639C726.475 427.781 727.7 429.509 729.355 430.823C731.01 432.137 733.119 432.795 735.683 432.795ZM765.575 437.565C764.374 437.565 763.344 437.135 762.484 436.275C761.624 435.415 761.194 434.385 761.194 433.184C761.194 431.983 761.624 430.953 762.484 430.093C763.344 429.233 764.374 428.803 765.575 428.803C766.776 428.803 767.806 429.233 768.666 430.093C769.526 430.953 769.956 431.983 769.956 433.184C769.956 433.979 769.753 434.709 769.347 435.374C768.958 436.04 768.43 436.575 767.765 436.981C767.116 437.37 766.386 437.565 765.575 437.565ZM788.829 430.361L788.44 432.989C788.164 434.839 787.742 436.818 787.174 438.928C786.623 441.037 786.047 443.024 785.446 444.89C784.846 446.756 784.351 448.241 783.962 449.344H779.581C779.792 448.306 780.068 446.935 780.408 445.231C780.749 443.527 781.09 441.621 781.431 439.512C781.788 437.419 782.08 435.277 782.307 433.087L782.599 430.361H788.829ZM819.525 437.175V387.333H825.56V431.821H848.729V437.175H819.525ZM848.723 392.687V387.333H886.105V392.687H870.432V437.175H864.396V392.687H848.723ZM910.802 437.175H895.42V387.333H911.483C916.318 387.333 920.455 388.33 923.895 390.326C927.335 392.305 929.971 395.153 931.805 398.868C933.638 402.568 934.555 406.997 934.555 412.157C934.555 417.349 933.63 421.818 931.78 425.566C929.931 429.298 927.237 432.17 923.7 434.182C920.163 436.177 915.864 437.175 910.802 437.175ZM901.456 431.821H910.412C914.533 431.821 917.949 431.026 920.658 429.436C923.368 427.846 925.388 425.583 926.718 422.646C928.049 419.709 928.714 416.213 928.714 412.157C928.714 408.133 928.057 404.669 926.743 401.765C925.428 398.844 923.465 396.605 920.853 395.047C918.241 393.474 914.988 392.687 911.094 392.687H901.456V431.821Z" fill="black"/>
</svg>
