<svg width="173" height="449" viewBox="0 0 173 449" fill="none" xmlns="http://www.w3.org/2000/svg">
<g clip-path="url(#clip0_506_1285)">
<path d="M137.024 704.481C116.388 667.841 52.875 530.123 145.614 506.369C204.746 491.224 221.171 379.264 110.489 379.264C36.9368 379.264 1.32554 283.746 110.489 255.697C143.089 246.095 181.849 207.736 110.489 159.421C88.7597 144.709 76.0723 98.9259 158.754 59.1013C194.299 38.1277 235.371 -15.1907 115.29 -60.6756C90.0232 -70.2465 45.3451 -95.6989 83.9567 -172.114C122.568 -248.528 105.436 -345.798 92.0429 -384.882" stroke="#4B4B4B" stroke-width="34.8718"/>
<path d="M138.287 708.777C117.65 672.137 52.5433 530.123 145.282 506.37C204.414 491.224 220.84 379.265 110.157 379.265C36.6051 379.265 0.993757 283.746 110.157 255.697C139.891 243.736 181.517 207.736 110.157 159.421C90.0226 141.985 75.7405 98.926 158.422 59.1014C193.968 38.1278 235.039 -15.1906 114.959 -60.6755C88.001 -70.8867 45.0133 -95.6988 83.625 -172.113C103.362 -221.052 126.158 -289.616 83.6249 -396" stroke="white" stroke-width="0.505388" stroke-dasharray="10.11 10.11"/>
<path d="M35.2651 239.542C34.915 238.874 35.1738 238.045 35.8416 237.695L61.7916 224.09C62.4557 223.742 63.2886 223.999 63.6387 224.667L73.5869 243.643L45.2133 258.518L35.2651 239.542Z" fill="#1A3349"/>
<path d="M73.587 243.643L64.5297 226.366L71.1101 222.917C72.2956 222.295 74.4972 222.289 75.8453 224.213C77.8284 227.037 81.1028 231.094 81.1028 231.094L88.2212 230.203C88.2212 230.203 90.9236 229.738 92.4144 232.581L95.3942 238.265C95.7974 239.034 95.4027 240.58 94.6899 240.954L49.8691 264.452C49.2013 264.802 48.3721 264.543 48.022 263.875L45.2134 258.518L73.587 243.643Z" fill="#38929C"/>
<path d="M70.8148 234.761C71.1649 235.428 71.9941 235.687 72.6619 235.337L77.4039 232.851C78.0717 232.501 78.2537 231.717 77.8157 231.109L73.9502 225.77C73.5102 225.159 72.6005 224.948 71.9364 225.296L68.3761 227.162C67.7121 227.51 67.4515 228.345 67.7996 229.009L70.8148 234.761Z" fill="white"/>
<path d="M82.4312 247.385C83.6526 249.715 86.5327 250.611 88.8625 249.39C91.1922 248.168 92.0937 245.29 90.8723 242.96C89.649 240.626 86.7708 239.734 84.441 240.956C82.1113 242.177 81.2078 245.052 82.4312 247.385ZM57.0101 260.713C58.2315 263.042 61.1116 263.938 63.4414 262.717C65.7711 261.495 66.6727 258.617 65.4512 256.287C64.2279 253.954 61.3497 253.062 59.0199 254.283C56.6902 255.505 55.7867 258.379 57.0101 260.713Z" fill="#2F2F2F"/>
</g>
<defs>
<clipPath id="clip0_506_1285">
<rect width="449" height="236" fill="white" transform="translate(0 449) rotate(-90)"/>
</clipPath>
</defs>
</svg>
