<svg width="1928" height="765" viewBox="0 0 1928 765" fill="none" xmlns="http://www.w3.org/2000/svg">
<path d="M-60.5 412.328C12 371.495 284.5 245.824 331.5 429.324C361.468 546.328 583 578.828 583 359.823C583 214.287 772 143.824 827.5 359.823C846.5 424.328 922.4 501.022 1018 359.823C1047.11 316.828 1137.7 291.724 1216.5 455.324C1258 525.657 1363.5 606.924 1453.5 369.324C1472.44 319.328 1522.8 230.925 1674 307.325C1825.2 383.725 2017.67 349.825 2095 323.325" stroke="#4B4B4B" stroke-width="69"/>
<path d="M-69 414.828C3.5 373.995 284.5 245.169 331.5 428.669C361.468 545.673 583 578.173 583 359.168C583 213.632 772 143.169 827.5 359.168C851.167 418.001 922.4 500.367 1018 359.168C1052.5 319.328 1137.7 291.069 1216.5 454.669C1258 525.002 1363.5 606.269 1453.5 368.669C1473.7 315.328 1522.8 230.269 1674 306.669C1770.83 345.722 1906.5 390.828 2117 306.669" stroke="white" stroke-dasharray="20 20"/>
<path d="M294.674 289.253C295.217 288.513 296.262 288.353 297.002 288.897L325.751 310.005C326.487 310.545 326.651 311.593 326.108 312.333L310.673 333.355L279.239 310.276L294.674 289.253Z" fill="#1A3349"/>
<path d="M310.673 333.356L324.725 314.216L332.016 319.568C333.329 320.533 334.513 322.937 333.129 325.44C331.1 329.118 328.414 334.867 328.414 334.867L333.193 342.176C333.193 342.176 335.146 344.883 332.833 348.033L328.21 354.33C327.584 355.182 325.683 355.577 324.893 354.997L275.238 318.539C274.498 317.996 274.338 316.951 274.881 316.211L279.239 310.276L310.673 333.356Z" fill="#38929C"/>
<path d="M318.905 325.577C318.362 326.316 318.522 327.362 319.262 327.905L324.515 331.762C325.255 332.305 326.21 332.085 326.64 331.281L330.413 324.2C330.846 323.392 330.591 322.284 329.855 321.744L325.911 318.848C325.175 318.308 324.123 318.469 323.583 319.205L318.905 325.577Z" fill="white"/>
<path d="M311.307 345.028C309.412 347.609 309.972 351.238 312.553 353.133C315.134 355.028 318.764 354.475 320.659 351.894C322.557 349.309 321.994 345.685 319.413 343.79C316.832 341.895 313.205 342.443 311.307 345.028ZM283.144 324.35C281.249 326.931 281.809 330.56 284.39 332.455C286.971 334.35 290.601 333.798 292.496 331.217C294.394 328.631 293.831 325.007 291.25 323.112C288.669 321.217 285.042 321.765 283.144 324.35Z" fill="#2F2F2F"/>
</svg>
