<svg width="834" height="400" viewBox="0 0 834 400" fill="none" xmlns="http://www.w3.org/2000/svg">
<path d="M-118.063 216.077C-80.1801 194.74 62.2073 129.074 86.7658 224.957C102.425 286.095 218.18 303.077 218.18 188.641C218.18 112.596 316.937 75.777 345.937 188.641C355.865 222.347 395.524 262.421 445.478 188.641C460.688 166.176 508.023 153.058 549.198 238.543C570.883 275.294 626.009 317.757 673.036 193.606C682.931 167.482 709.247 121.289 788.252 161.21C867.258 201.131 967.826 183.417 1008.23 169.57" stroke="#4B4B4B" stroke-width="36.0541"/>
<path d="M-122.504 217.382C-84.6215 196.046 62.2073 128.732 86.7659 224.614C102.425 285.752 218.18 302.734 218.18 188.299C218.18 112.253 316.937 75.4343 345.937 188.299C358.303 219.04 395.524 262.078 445.478 188.299C463.505 167.482 508.024 152.715 549.198 238.2C570.883 274.951 626.009 317.414 673.036 193.263C683.594 165.391 709.247 120.946 788.252 160.867C838.85 181.273 909.739 204.842 1019.73 160.867" stroke="white" stroke-width="0.522523" stroke-dasharray="10.45 10.45"/>
<path d="M67.524 151.767C67.8078 151.38 68.3539 151.297 68.7405 151.581L83.7624 162.61C84.1468 162.892 84.2327 163.44 83.9488 163.826L75.8836 174.811L59.4588 162.752L67.524 151.767Z" fill="#1A3349"/>
<path d="M75.8835 174.812L83.2264 164.811L87.0356 167.608C87.7219 168.112 88.3404 169.368 87.6176 170.676C86.5572 172.598 85.1538 175.602 85.1538 175.602L87.6511 179.421C87.6511 179.421 88.6715 180.835 87.4629 182.482L85.0471 185.772C84.7203 186.217 83.7265 186.423 83.3139 186.12L57.3681 167.07C56.9815 166.786 56.8978 166.24 57.1817 165.854L59.4587 162.753L75.8835 174.812Z" fill="#38929C"/>
<path d="M80.1852 170.747C79.9013 171.133 79.985 171.679 80.3716 171.963L83.1167 173.979C83.5032 174.263 84.0022 174.148 84.2269 173.728L86.1982 170.028C86.4245 169.606 86.2915 169.027 85.9071 168.744L83.8461 167.231C83.4617 166.949 82.9118 167.033 82.6296 167.417L80.1852 170.747Z" fill="white"/>
<path d="M76.2149 180.911C75.2247 182.26 75.5172 184.156 76.8658 185.146C78.2145 186.136 80.1111 185.847 81.1013 184.499C82.0931 183.148 81.799 181.254 80.4503 180.264C79.1017 179.274 77.2067 179.56 76.2149 180.911ZM61.4992 170.106C60.5089 171.455 60.8014 173.351 62.1501 174.341C63.4987 175.331 65.3954 175.043 66.3856 173.694C67.3774 172.343 67.0833 170.449 65.7346 169.459C64.386 168.469 62.491 168.756 61.4992 170.106Z" fill="#2F2F2F"/>
</svg>
