<svg width="71" height="71" viewBox="0 0 71 71" fill="none" xmlns="http://www.w3.org/2000/svg">
<rect width="70.4717" height="70.4717" rx="35.2358" fill="white"/>
<path d="M53.0596 48.5107H48.5925C46.9031 48.5107 46.3942 47.1424 43.3659 44.1121C40.7192 41.5614 39.6015 41.2443 38.932 41.2443C38.0061 41.2443 37.7536 41.4988 37.7536 42.7732V46.79C37.7536 47.8765 37.4012 48.5127 34.5628 48.5127C31.8091 48.3277 29.1387 47.4911 26.7717 46.0719C24.4046 44.6527 22.4086 42.6915 20.948 40.3497C17.4812 36.0326 15.0683 30.9669 13.9008 25.5546C13.9008 24.8851 14.1553 24.2782 15.4317 24.2782H19.8949C21.042 24.2782 21.455 24.7892 21.9053 25.9696C24.0723 32.3473 27.7701 37.8949 29.2715 37.8949C29.847 37.8949 30.0976 37.6405 30.0976 36.2056V29.6361C29.9077 26.639 28.3162 26.3865 28.3162 25.302C28.3364 25.0159 28.4672 24.7489 28.6811 24.5578C28.8949 24.3666 29.1748 24.2663 29.4614 24.2782H36.4772C37.4364 24.2782 37.7536 24.7559 37.7536 25.903V34.7707C37.7536 35.7279 38.1646 36.0451 38.4544 36.0451C39.0299 36.0451 39.4723 35.7279 40.5274 34.6748C42.7882 31.9159 44.6358 28.8431 46.0125 25.5526C46.1527 25.1571 46.4188 24.8185 46.7699 24.5887C47.121 24.3589 47.5377 24.2505 47.9563 24.2802H52.4215C53.7604 24.2802 54.0443 24.9497 53.7604 25.905C52.1359 29.5427 50.1265 32.9959 47.7664 36.2056C47.2849 36.9397 47.093 37.3214 47.7664 38.1827C48.2088 38.8522 49.7749 40.1598 50.8261 41.4029C52.3569 42.9298 53.6273 44.6955 54.5885 46.6295C54.9721 47.8745 54.334 48.5107 53.0596 48.5107Z" fill="#295D70"/>
</svg>
