<svg width="39" height="39" viewBox="0 0 39 39" fill="none" xmlns="http://www.w3.org/2000/svg">
<rect width="39" height="39" rx="19.5" fill="#295D70"/>
<path d="M29.3635 26.8461H26.8913C25.9564 26.8461 25.6748 26.0888 23.9988 24.4118C22.5342 23.0003 21.9156 22.8248 21.5451 22.8248C21.0327 22.8248 20.8929 22.9656 20.8929 23.6708V25.8938C20.8929 26.4951 20.6979 26.8472 19.1271 26.8472C17.6032 26.7448 16.1253 26.2818 14.8154 25.4964C13.5054 24.711 12.4008 23.6256 11.5925 22.3297C9.67394 19.9405 8.33861 17.1371 7.6925 14.1418C7.6925 13.7713 7.83334 13.4355 8.53967 13.4355H11.0097C11.6445 13.4355 11.8731 13.7183 12.1223 14.3715C13.3215 17.901 15.3679 20.9712 16.1988 20.9712C16.5173 20.9712 16.656 20.8303 16.656 20.0363V16.4006C16.5509 14.742 15.6702 14.6023 15.6702 14.0021C15.6813 13.8437 15.7537 13.696 15.8721 13.5902C15.9904 13.4844 16.1453 13.4289 16.3039 13.4355H20.1866C20.7174 13.4355 20.8929 13.6998 20.8929 14.3347V19.2422C20.8929 19.7719 21.1204 19.9474 21.2808 19.9474C21.5993 19.9474 21.8441 19.7719 22.428 19.1891C23.6791 17.6623 24.7017 15.9617 25.4635 14.1408C25.5411 13.9219 25.6884 13.7345 25.8827 13.6073C26.077 13.4801 26.3076 13.4201 26.5393 13.4366H29.0103C29.7513 13.4366 29.9084 13.8071 29.7513 14.3358C28.8523 16.3489 27.7403 18.26 26.4342 20.0363C26.1677 20.4425 26.0615 20.6538 26.4342 21.1304C26.679 21.5009 27.5457 22.2246 28.1274 22.9125C28.9746 23.7575 29.6777 24.7347 30.2096 25.805C30.4219 26.494 30.0688 26.8461 29.3635 26.8461Z" fill="white"/>
</svg>
