<svg width="71" height="71" viewBox="0 0 71 71" fill="none" xmlns="http://www.w3.org/2000/svg">
<rect x="0.528381" width="70.4717" height="70.4717" rx="35.2358" fill="white"/>
<path fill-rule="evenodd" clip-rule="evenodd" d="M36.5487 17.6182C45.8462 17.6182 53.3836 25.1555 53.3836 34.4531C53.3836 43.7506 45.8462 51.288 36.5487 51.288C33.6358 51.288 30.8953 50.5472 28.5039 49.2443L21.0809 50.4893C20.898 50.5198 20.7104 50.5066 20.5335 50.4507C20.3566 50.3947 20.1955 50.2977 20.0634 50.1676C19.9312 50.0374 19.8318 49.8778 19.7732 49.7018C19.7146 49.5258 19.6985 49.3384 19.7263 49.155L20.9791 40.8707C20.1398 38.8354 19.7099 36.6546 19.7138 34.4531C19.7138 25.1555 27.2511 17.6182 36.5487 17.6182ZM30.1953 26.1531C29.0442 26.1531 28.0905 27.124 28.269 28.3236C28.6073 30.5724 29.6064 34.7162 32.5788 37.7104C35.6858 40.8409 40.1318 42.1799 42.5388 42.7077C43.7853 42.9817 44.8487 41.9951 44.8487 40.7783V37.9218C44.8487 37.8269 44.82 37.7342 44.7663 37.656C44.7127 37.5777 44.6365 37.5175 44.548 37.4834L41.4786 36.3041C41.3957 36.2724 41.3056 36.2648 41.2186 36.2822L38.1225 36.8867C36.1258 35.8531 34.9169 34.6942 34.1918 32.9481L34.7744 29.7925C34.79 29.7086 34.7824 29.622 34.7524 29.542L33.6014 26.4584C33.568 26.369 33.5081 26.2919 33.4298 26.2373C33.3515 26.1828 33.2584 26.1534 33.1629 26.1531H30.1953Z" fill="#295D70"/>
</svg>
