<svg width="71" height="71" viewBox="0 0 71 71" fill="none" xmlns="http://www.w3.org/2000/svg">
<rect x="0.52832" width="70.4717" height="70.4717" rx="35.2358" fill="white"/>
<path fill-rule="evenodd" clip-rule="evenodd" d="M36.5486 17.6182C45.8462 17.6182 53.3835 25.1555 53.3835 34.4531C53.3835 43.7506 45.8462 51.288 36.5486 51.288C33.6358 51.288 30.8952 50.5472 28.5039 49.2443L21.0809 50.4893C20.8979 50.5198 20.7103 50.5066 20.5334 50.4507C20.3566 50.3947 20.1955 50.2977 20.0633 50.1676C19.9312 50.0374 19.8317 49.8778 19.7731 49.7018C19.7146 49.5258 19.6985 49.3384 19.7262 49.155L20.9791 40.8707C20.1398 38.8354 19.7098 36.6546 19.7137 34.4531C19.7137 25.1555 27.251 17.6182 36.5486 17.6182ZM30.1952 26.1531C29.0442 26.1531 28.0904 27.124 28.269 28.3236C28.6072 30.5724 29.6064 34.7162 32.5787 37.7104C35.6857 40.8409 40.1317 42.1799 42.5387 42.7077C43.7853 42.9817 44.8486 41.9951 44.8486 40.7783V37.9218C44.8486 37.8269 44.8199 37.7342 44.7663 37.656C44.7126 37.5777 44.6365 37.5175 44.5479 37.4834L41.4785 36.3041C41.3957 36.2724 41.3055 36.2648 41.2185 36.2822L38.1225 36.8867C36.1258 35.8531 34.9168 34.6942 34.1917 32.9481L34.7743 29.7925C34.7899 29.7086 34.7823 29.622 34.7524 29.542L33.6013 26.4584C33.5679 26.369 33.5081 26.2919 33.4297 26.2373C33.3514 26.1828 33.2583 26.1534 33.1628 26.1531H30.1952Z" fill="#4B4B4B"/>
</svg>
