<svg width="71" height="71" viewBox="0 0 71 71" fill="none" xmlns="http://www.w3.org/2000/svg">
<rect width="70.4717" height="70.4717" rx="35.2358" fill="white"/>
<path d="M53.0595 48.5107H48.5924C46.903 48.5107 46.3941 47.1424 43.3658 44.1121C40.7192 41.5614 39.6014 41.2443 38.9319 41.2443C38.006 41.2443 37.7535 41.4988 37.7535 42.7732V46.79C37.7535 47.8765 37.4011 48.5127 34.5627 48.5127C31.809 48.3277 29.1386 47.4911 26.7716 46.0719C24.4045 44.6527 22.4085 42.6915 20.9479 40.3497C17.4811 36.0326 15.0683 30.9669 13.9008 25.5546C13.9008 24.8851 14.1552 24.2782 15.4316 24.2782H19.8948C21.0419 24.2782 21.4549 24.7892 21.9052 25.9696C24.0722 32.3473 27.77 37.8949 29.2714 37.8949C29.8469 37.8949 30.0975 37.6405 30.0975 36.2056V29.6361C29.9076 26.639 28.3161 26.3865 28.3161 25.302C28.3363 25.0159 28.4671 24.7489 28.681 24.5578C28.8948 24.3666 29.1747 24.2663 29.4613 24.2782H36.4771C37.4363 24.2782 37.7535 24.7559 37.7535 25.903V34.7707C37.7535 35.7279 38.1646 36.0451 38.4543 36.0451C39.0298 36.0451 39.4722 35.7279 40.5273 34.6748C42.7881 31.9159 44.6357 28.8431 46.0124 25.5526C46.1526 25.1571 46.4187 24.8185 46.7698 24.5887C47.1209 24.3589 47.5376 24.2505 47.9562 24.2802H52.4214C53.7603 24.2802 54.0442 24.9497 53.7603 25.905C52.1358 29.5427 50.1264 32.9959 47.7663 36.2056C47.2848 36.9397 47.0929 37.3214 47.7663 38.1827C48.2087 38.8522 49.7748 40.1598 50.826 41.4029C52.3568 42.9298 53.6272 44.6955 54.5884 46.6295C54.9721 47.8745 54.3339 48.5107 53.0595 48.5107Z" fill="#4B4B4B"/>
</svg>
