<svg width="40" height="39" viewBox="0 0 40 39" fill="none" xmlns="http://www.w3.org/2000/svg">
<rect x="0.800293" width="39" height="39" rx="19.5" fill="#295D70"/>
<path fill-rule="evenodd" clip-rule="evenodd" d="M20.7343 9.75C25.8797 9.75 30.051 13.9213 30.051 19.0667C30.051 24.2121 25.8797 28.3833 20.7343 28.3833C19.1223 28.3833 17.6056 27.9734 16.2822 27.2523L12.1742 27.9413C12.073 27.9582 11.9692 27.9509 11.8713 27.92C11.7734 27.889 11.6842 27.8353 11.6111 27.7633C11.538 27.6912 11.4829 27.6029 11.4505 27.5055C11.4181 27.4081 11.4092 27.3044 11.4246 27.2029L12.1179 22.6183C11.6534 21.4919 11.4155 20.285 11.4176 19.0667C11.4176 13.9213 15.5889 9.75 20.7343 9.75ZM17.2182 14.4733C16.5812 14.4733 16.0534 15.0107 16.1522 15.6745C16.3394 16.9191 16.8924 19.2123 18.5373 20.8693C20.2568 22.6018 22.7172 23.3428 24.0493 23.6349C24.7392 23.7865 25.3276 23.2405 25.3276 22.5671V20.9863C25.3276 20.9338 25.3118 20.8825 25.2821 20.8392C25.2523 20.7959 25.2102 20.7626 25.1612 20.7437L23.4626 20.0911C23.4167 20.0735 23.3668 20.0693 23.3187 20.0789L21.6053 20.4135C20.5003 19.8415 19.8312 19.2001 19.43 18.2338L19.7524 16.4875C19.761 16.441 19.7568 16.3931 19.7402 16.3488L19.1032 14.6423C19.0847 14.5928 19.0516 14.5502 19.0083 14.52C18.9649 14.4898 18.9134 14.4735 18.8606 14.4733H17.2182Z" fill="white"/>
</svg>
