<svg width="72" height="39" viewBox="0 0 72 39" fill="none" xmlns="http://www.w3.org/2000/svg">
<path d="M0.5 19.5C0.5 9.00659 9.00659 0.5 19.5 0.5H35.5V38.5H19.5C9.00659 38.5 0.5 29.9934 0.5 19.5Z" stroke="black"/>
<path d="M13.088 21.744V26H11.696V15.12H15.104C16.128 15.12 16.9173 15.392 17.472 15.936C18.0373 16.4693 18.32 17.184 18.32 18.08V18.768C18.32 19.408 18.1707 19.9627 17.872 20.432C17.584 20.9013 17.168 21.248 16.624 21.472C17.0827 22.208 17.5093 22.9547 17.904 23.712C18.2987 24.4693 18.6613 25.232 18.992 26H17.392C16.784 24.5493 16.0747 23.1307 15.264 21.744H13.088ZM15.104 16.4H13.088V20.464H15.104C15.648 20.464 16.08 20.3147 16.4 20.016C16.72 19.7067 16.88 19.2907 16.88 18.768V18.08C16.88 17.5467 16.72 17.136 16.4 16.848C16.08 16.5493 15.648 16.4 15.104 16.4ZM21.0814 15.12H22.5214V22.096C22.5214 22.9707 22.7027 23.6533 23.0654 24.144C23.4387 24.6347 24.0147 24.88 24.7934 24.88C25.5827 24.88 26.1587 24.6347 26.5214 24.144C26.884 23.6533 27.0654 22.9707 27.0654 22.096V15.12H28.5054V22.096C28.5054 23.3653 28.196 24.3627 27.5774 25.088C26.9587 25.8027 26.0307 26.16 24.7934 26.16C23.5454 26.16 22.612 25.8027 21.9934 25.088C21.3854 24.3627 21.0814 23.3653 21.0814 22.096V15.12Z" fill="black"/>
<path d="M36 0H52.5C63.2696 0 72 8.73045 72 19.5C72 30.2696 63.2696 39 52.5 39H36V0Z" fill="#4B4B4B"/>
<path d="M49.776 24.704V26H43.696V15.12H49.616V16.432H45.088V19.84H49.136V21.152H45.088V24.704H49.776ZM52.196 26V15.12H53.652C54.6227 16.5067 55.5133 17.904 56.324 19.312C57.1453 20.7093 57.9133 22.1707 58.628 23.696L58.468 19.536V15.12H59.828V26H58.372C57.6253 24.4427 56.852 22.928 56.052 21.456C55.2627 19.9733 54.3987 18.528 53.46 17.12L53.556 21.552V26H52.196Z" fill="white"/>
</svg>
