<svg width="54" height="54" viewBox="0 0 54 54" fill="none" xmlns="http://www.w3.org/2000/svg">
<rect x="0.0217285" y="0.0545654" width="53.8909" height="53.8909" rx="26.9455" fill="#295D70"/>
<g clip-path="url(#clip0_506_1894)">
<path fill-rule="evenodd" clip-rule="evenodd" d="M22.0501 11.7526C15.3642 11.7526 9.69446 16.2974 9.69446 22.1847C9.69446 25.199 11.2016 27.8839 13.554 29.764V32.3774C13.554 32.4973 13.5816 32.6155 13.6348 32.7229C13.688 32.8302 13.7654 32.9238 13.8607 32.9963C13.9561 33.0689 14.067 33.1183 14.1847 33.1409C14.3024 33.1635 14.4237 33.1585 14.5391 33.1264L18.2107 32.1055C19.5415 32.4702 20.9176 32.6423 22.2971 32.6167C22.3425 32.6153 22.387 32.604 22.4276 32.5837C22.4682 32.5634 22.504 32.5345 22.5323 32.4991C22.5607 32.4636 22.581 32.4225 22.5919 32.3784C22.6028 32.3343 22.604 32.2884 22.5955 32.2438C22.4949 31.6682 22.4445 31.0849 22.4447 30.5005C22.4447 24.4439 27.7353 20.1881 33.6273 19.6085C33.6738 19.6048 33.7188 19.5905 33.759 19.5668C33.7992 19.5431 33.8335 19.5105 33.8593 19.4716C33.885 19.4327 33.9016 19.3884 33.9077 19.3421C33.9138 19.2959 33.9093 19.2488 33.8945 19.2045C32.3609 14.8291 27.5629 11.7526 22.0501 11.7526ZM19.5687 17.9056C19.5687 18.3444 19.3944 18.7653 19.084 19.0757C18.7737 19.386 18.3528 19.5603 17.9139 19.5603C17.4751 19.5603 17.0542 19.386 16.7438 19.0757C16.4335 18.7653 16.2592 18.3444 16.2592 17.9056C16.2592 17.4667 16.4335 17.0458 16.7438 16.7355C17.0542 16.4251 17.4751 16.2508 17.9139 16.2508C18.3528 16.2508 18.7737 16.4251 19.084 16.7355C19.3944 17.0458 19.5687 17.4667 19.5687 17.9056ZM26.1847 19.5588C26.4062 19.5656 26.6267 19.5278 26.8333 19.4478C27.0399 19.3677 27.2284 19.2469 27.3874 19.0927C27.5465 18.9384 27.6729 18.7538 27.7593 18.5497C27.8457 18.3457 27.8902 18.1264 27.8902 17.9048C27.8902 17.6832 27.8457 17.4639 27.7593 17.2599C27.6729 17.0558 27.5465 16.8712 27.3874 16.7169C27.2284 16.5627 27.0399 16.4419 26.8333 16.3618C26.6267 16.2818 26.4062 16.244 26.1847 16.2508C25.7458 16.2508 25.3249 16.4251 25.0146 16.7355C24.7043 17.0458 24.5299 17.4667 24.5299 17.9056C24.5299 18.3444 24.7043 18.7653 25.0146 19.0757C25.3249 19.386 25.7458 19.5588 26.1847 19.5588Z" fill="white"/>
<path fill-rule="evenodd" clip-rule="evenodd" d="M35.0054 21.6766C40.6254 21.6766 45.4313 25.5004 45.4313 30.5005C45.4313 33.0363 44.1727 35.2923 42.2149 36.8772V38.9934C42.215 39.1133 42.1874 39.2315 42.1342 39.3389C42.081 39.4462 42.0036 39.5398 41.9082 39.6123C41.8128 39.6849 41.702 39.7343 41.5843 39.7569C41.4666 39.7794 41.3453 39.7745 41.2299 39.7424L38.2047 38.9018C37.1611 39.1805 36.0856 39.3221 35.0054 39.3228C29.387 39.3228 24.5796 35.5005 24.5796 30.5005C24.5796 25.5004 29.387 21.6766 35.0054 21.6766ZM31.5188 29.0695C31.7128 29.0758 31.9062 29.0431 32.0873 28.9732C32.2685 28.9034 32.4337 28.7978 32.5732 28.6627C32.7128 28.5277 32.8237 28.366 32.8995 28.1872C32.9753 28.0085 33.0143 27.8163 33.0143 27.6221C33.0143 27.428 32.9753 27.2358 32.8995 27.057C32.8237 26.8783 32.7128 26.7165 32.5732 26.5815C32.4337 26.4465 32.2685 26.3409 32.0873 26.271C31.9062 26.2012 31.7128 26.1684 31.5188 26.1748C31.1431 26.1871 30.787 26.345 30.5256 26.6151C30.2642 26.8851 30.1181 27.2463 30.1181 27.6221C30.1181 27.998 30.2642 28.3591 30.5256 28.6292C30.787 28.8993 31.1431 29.0572 31.5188 29.0695ZM39.9962 27.6229C39.9962 28.0068 39.8437 28.3749 39.5722 28.6463C39.3008 28.9178 38.9327 29.0702 38.5488 29.0702C38.165 29.0702 37.7968 28.9178 37.5254 28.6463C37.254 28.3749 37.1015 28.0068 37.1015 27.6229C37.1015 27.239 37.254 26.8709 37.5254 26.5995C37.7968 26.3281 38.165 26.1756 38.5488 26.1756C38.9327 26.1756 39.3008 26.3281 39.5722 26.5995C39.8437 26.8709 39.9962 27.239 39.9962 27.6229Z" fill="white"/>
</g>
<defs>
<clipPath id="clip0_506_1894">
<rect width="35.9273" height="35.9273" fill="white" transform="translate(9.69446 8.34549)"/>
</clipPath>
</defs>
</svg>
