<svg width="83" height="83" viewBox="0 0 83 83" fill="none" xmlns="http://www.w3.org/2000/svg">
<rect x="0.600098" y="0.671875" width="82" height="82" rx="41" fill="white"/>
<g clip-path="url(#clip0_506_1438)">
<path fill-rule="evenodd" clip-rule="evenodd" d="M32.9707 19.7119C23.01 19.7119 14.5631 26.4828 14.5631 35.2538C14.5631 39.7445 16.8085 43.7446 20.3132 46.5455V50.4391C20.3131 50.6176 20.3543 50.7938 20.4335 50.9537C20.5128 51.1137 20.628 51.2531 20.7701 51.3612C20.9122 51.4692 21.0774 51.5429 21.2527 51.5765C21.4281 51.6101 21.6088 51.6027 21.7808 51.5549L27.2508 50.034C29.2333 50.5772 31.2835 50.8337 33.3388 50.7956C33.4064 50.7935 33.4727 50.7767 33.5332 50.7464C33.5937 50.7162 33.6469 50.6731 33.6892 50.6203C33.7314 50.5675 33.7617 50.5062 33.7779 50.4405C33.7942 50.3749 33.796 50.3065 33.7832 50.24C33.6334 49.3824 33.5583 48.5134 33.5587 47.6428C33.5587 38.6195 41.4407 32.2792 50.2186 31.4157C50.2879 31.4102 50.355 31.3889 50.4149 31.3536C50.4748 31.3183 50.5259 31.2697 50.5642 31.2118C50.6026 31.1538 50.6272 31.0878 50.6363 31.0189C50.6454 30.9499 50.6387 30.8798 50.6168 30.8139C48.332 24.2953 41.1838 19.7119 32.9707 19.7119ZM29.2739 28.8787C29.2739 29.5325 29.0142 30.1596 28.5519 30.6219C28.0895 31.0843 27.4625 31.344 26.8086 31.344C26.1548 31.344 25.5277 31.0843 25.0654 30.6219C24.603 30.1596 24.3433 29.5325 24.3433 28.8787C24.3433 28.2248 24.603 27.5978 25.0654 27.1354C25.5277 26.6731 26.1548 26.4134 26.8086 26.4134C27.4625 26.4134 28.0895 26.6731 28.5519 27.1354C29.0142 27.5978 29.2739 28.2248 29.2739 28.8787ZM39.1305 31.3417C39.4605 31.3518 39.7891 31.2955 40.0969 31.1762C40.4047 31.057 40.6854 30.8771 40.9224 30.6473C41.1593 30.4174 41.3477 30.1424 41.4764 29.8384C41.6051 29.5344 41.6714 29.2076 41.6714 28.8775C41.6714 28.5474 41.6051 28.2207 41.4764 27.9167C41.3477 27.6127 41.1593 27.3376 40.9224 27.1078C40.6854 26.878 40.4047 26.6981 40.0969 26.5788C39.7891 26.4595 39.4605 26.4033 39.1305 26.4134C38.4767 26.4134 37.8496 26.6731 37.3873 27.1354C36.9249 27.5978 36.6652 28.2248 36.6652 28.8787C36.6652 29.5325 36.9249 30.1596 37.3873 30.6219C37.8496 31.0843 38.4767 31.3417 39.1305 31.3417Z" fill="#4B4B4B"/>
<path fill-rule="evenodd" clip-rule="evenodd" d="M52.2716 34.4971C60.6444 34.4971 67.8042 40.1939 67.8042 47.6431C67.8042 51.4209 65.9292 54.782 63.0125 57.1432V60.296C63.0126 60.4745 62.9714 60.6506 62.8921 60.8106C62.8128 60.9705 62.6976 61.11 62.5555 61.218C62.4134 61.3261 62.2482 61.3998 62.0729 61.4334C61.8976 61.467 61.7168 61.4596 61.5448 61.4117L57.0379 60.1594C55.4831 60.5747 53.8809 60.7856 52.2716 60.7867C43.9011 60.7867 36.739 55.0922 36.739 47.6431C36.739 40.1939 43.9011 34.4971 52.2716 34.4971ZM47.0771 45.5111C47.3662 45.5206 47.6543 45.4718 47.9242 45.3677C48.194 45.2636 48.4402 45.1063 48.6481 44.9051C48.856 44.704 49.0212 44.463 49.1341 44.1967C49.247 43.9304 49.3052 43.6441 49.3052 43.3548C49.3052 43.0655 49.247 42.7792 49.1341 42.5129C49.0212 42.2466 48.856 42.0057 48.6481 41.8045C48.4402 41.6033 48.194 41.446 47.9242 41.3419C47.6543 41.2378 47.3662 41.1891 47.0771 41.1985C46.5174 41.2169 45.9868 41.4521 45.5974 41.8545C45.208 42.2568 44.9903 42.7949 44.9903 43.3548C44.9903 43.9148 45.208 44.4528 45.5974 44.8552C45.9868 45.2575 46.5174 45.4927 47.0771 45.5111ZM59.7069 43.356C59.7069 43.9278 59.4797 44.4763 59.0753 44.8807C58.6709 45.2851 58.1225 45.5122 57.5506 45.5122C56.9787 45.5122 56.4303 45.2851 56.0259 44.8807C55.6215 44.4763 55.3943 43.9278 55.3943 43.356C55.3943 42.7841 55.6215 42.2356 56.0259 41.8313C56.4303 41.4269 56.9787 41.1997 57.5506 41.1997C58.1225 41.1997 58.6709 41.4269 59.0753 41.8313C59.4797 42.2356 59.7069 42.7841 59.7069 43.356Z" fill="#4B4B4B"/>
</g>
<defs>
<clipPath id="clip0_506_1438">
<rect width="53.525" height="53.525" fill="white" transform="translate(14.5631 14.6348)"/>
</clipPath>
</defs>
</svg>
