<svg width="82" height="83" viewBox="0 0 82 83" fill="none" xmlns="http://www.w3.org/2000/svg">
<rect y="0.671875" width="82" height="82" rx="41" fill="white"/>
<path d="M61.7395 57.1179H56.5416C54.5759 57.1179 53.9836 55.5257 50.4599 51.9997C47.3804 49.0318 46.0798 48.6628 45.3008 48.6628C44.2234 48.6628 43.9295 48.9589 43.9295 50.4417V55.1157C43.9295 56.3799 43.5195 57.1202 40.2168 57.1202C37.0126 56.9049 33.9054 55.9315 31.1511 54.2801C28.3969 52.6288 26.0743 50.3467 24.3748 47.6218C20.3409 42.5985 17.5333 36.7041 16.1748 30.4064C16.1748 29.6274 16.4709 28.9213 17.956 28.9213H23.1494C24.4841 28.9213 24.9648 29.5158 25.4886 30.8893C28.0101 38.3103 32.3129 44.7655 34.0599 44.7655C34.7296 44.7655 35.0211 44.4694 35.0211 42.7998V35.1556C34.8002 31.6683 32.9484 31.3745 32.9484 30.1126C32.9718 29.7797 33.1241 29.469 33.3729 29.2465C33.6217 29.0241 33.9474 28.9074 34.2809 28.9213H42.4444C43.5605 28.9213 43.9295 29.4771 43.9295 30.8118V41.1302C43.9295 42.244 44.4079 42.613 44.745 42.613C45.4146 42.613 45.9294 42.244 47.1571 41.0186C49.7877 37.8084 51.9376 34.2329 53.5395 30.4041C53.7027 29.9439 54.0123 29.5499 54.4208 29.2825C54.8293 29.0151 55.3143 28.889 55.8013 28.9236H60.9969C62.5549 28.9236 62.8852 29.7026 62.5549 30.8141C60.6647 35.0469 58.3265 39.0651 55.5804 42.7998C55.02 43.654 54.7968 44.0981 55.5804 45.1003C56.0951 45.8793 57.9174 47.4009 59.1405 48.8473C60.9218 50.624 62.4 52.6785 63.5184 54.929C63.9649 56.3776 63.2223 57.1179 61.7395 57.1179Z" fill="#4B4B4B"/>
</svg>
