<svg width="55" height="54" viewBox="0 0 55 54" fill="none" xmlns="http://www.w3.org/2000/svg">
<rect x="0.236328" y="0.0545502" width="53.8909" height="53.8909" rx="26.9455" fill="#295D70"/>
<path d="M40.8113 37.151H37.3953C36.1034 37.151 35.7142 36.1046 33.3984 33.7873C31.3745 31.8367 30.5197 31.5942 30.0077 31.5942C29.2997 31.5942 29.1065 31.7888 29.1065 32.7634V35.8351C29.1065 36.666 28.8371 37.1525 26.6665 37.1525C24.5607 37.011 22.5186 36.3713 20.7085 35.286C18.8984 34.2007 17.372 32.7009 16.2551 30.9101C13.6039 27.6087 11.7588 23.7349 10.866 19.596C10.866 19.0841 11.0606 18.62 12.0366 18.62H15.4497C16.3269 18.62 16.6428 19.0107 16.9871 19.9134C18.6442 24.7905 21.472 29.0329 22.6202 29.0329C23.0603 29.0329 23.2519 28.8383 23.2519 27.741V22.7172C23.1067 20.4253 21.8897 20.2322 21.8897 19.4029C21.905 19.1841 22.0051 18.9799 22.1686 18.8338C22.3322 18.6876 22.5462 18.6109 22.7654 18.62H28.1305C28.864 18.62 29.1065 18.9853 29.1065 19.8625V26.6438C29.1065 27.3758 29.4209 27.6183 29.6425 27.6183C30.0826 27.6183 30.4209 27.3758 31.2277 26.5704C32.9566 24.4607 34.3695 22.1108 35.4223 19.5945C35.5295 19.2921 35.733 19.0331 36.0015 18.8574C36.2699 18.6817 36.5887 18.5988 36.9087 18.6215H40.3233C41.3473 18.6215 41.5643 19.1335 41.3473 19.864C40.105 22.6458 38.5683 25.2865 36.7635 27.741C36.3953 28.3024 36.2486 28.5943 36.7635 29.253C37.1019 29.7649 38.2994 30.7649 39.1033 31.7155C40.2739 32.8831 41.2455 34.2334 41.9805 35.7124C42.2739 36.6645 41.7859 37.151 40.8113 37.151Z" fill="white"/>
</svg>
