<svg width="83" height="83" viewBox="0 0 83 83" fill="none" xmlns="http://www.w3.org/2000/svg">
<rect x="0.733398" y="0.671875" width="82" height="82" rx="41" fill="white"/>
<path fill-rule="evenodd" clip-rule="evenodd" d="M42.6461 21.1719C53.4646 21.1719 62.235 29.9422 62.235 40.7608C62.235 51.5793 53.4646 60.3497 42.6461 60.3497C39.2568 60.3497 36.0679 59.4877 33.2853 57.9717L24.648 59.4203C24.4351 59.4558 24.2168 59.4404 24.011 59.3754C23.8053 59.3103 23.6178 59.1974 23.464 59.046C23.3103 58.8945 23.1945 58.7088 23.1264 58.504C23.0582 58.2992 23.0395 58.0812 23.0718 57.8678L24.5296 48.2282C23.553 45.86 23.0527 43.3225 23.0572 40.7608C23.0572 29.9422 31.8276 21.1719 42.6461 21.1719ZM35.2533 31.103C33.914 31.103 32.8043 32.2328 33.012 33.6286C33.4056 36.2453 34.5682 41.0669 38.0268 44.551C41.6421 48.1936 46.8153 49.7516 49.6161 50.3657C51.0666 50.6846 52.3039 49.5366 52.3039 48.1207V44.797C52.3039 44.6866 52.2705 44.5787 52.2081 44.4876C52.1456 44.3965 52.057 44.3265 51.954 44.2868L48.3825 42.9146C48.2861 42.8777 48.1812 42.8689 48.08 42.8891L44.4774 43.5925C42.1541 42.3898 40.7473 41.0414 39.9037 39.0096L40.5815 35.3378C40.5997 35.2401 40.5909 35.1393 40.556 35.0463L39.2167 31.4583C39.1778 31.3543 39.1082 31.2645 39.017 31.2011C38.9259 31.1376 38.8175 31.1034 38.7065 31.103H35.2533Z" fill="#4B4B4B"/>
</svg>
