<svg width="55" height="54" viewBox="0 0 55 54" fill="none" xmlns="http://www.w3.org/2000/svg">
<rect x="0.76001" y="0.0545654" width="53.8909" height="53.8909" rx="26.9455" fill="#295D70"/>
<path fill-rule="evenodd" clip-rule="evenodd" d="M28.3053 13.5273C35.4153 13.5273 41.1792 19.2912 41.1792 26.4012C41.1792 33.5112 35.4153 39.2752 28.3053 39.2752C26.0778 39.2752 23.982 38.7087 22.1533 37.7123L16.4768 38.6644C16.3369 38.6878 16.1934 38.6776 16.0582 38.6349C15.9229 38.5921 15.7997 38.5179 15.6987 38.4184C15.5976 38.3188 15.5216 38.1968 15.4768 38.0622C15.432 37.9276 15.4197 37.7843 15.4409 37.6441L16.399 31.3089C15.7571 29.7525 15.4283 28.0848 15.4313 26.4012C15.4313 19.2912 21.1953 13.5273 28.3053 13.5273ZM23.4467 20.0541C22.5665 20.0541 21.8372 20.7966 21.9737 21.7139C22.2324 23.4336 22.9964 26.6024 25.2694 28.8922C27.6454 31.2861 31.0453 32.3101 32.886 32.7137C33.8393 32.9232 34.6524 32.1688 34.6524 31.2382V29.0539C34.6524 28.9813 34.6305 28.9104 34.5894 28.8506C34.5484 28.7907 34.4902 28.7447 34.4225 28.7185L32.0752 27.8168C32.0119 27.7925 31.9429 27.7867 31.8764 27.8L29.5088 28.2623C27.9819 27.4719 27.0574 26.5857 26.5029 25.2504L26.9484 22.8373C26.9603 22.773 26.9545 22.7068 26.9316 22.6456L26.0514 20.2876C26.0259 20.2192 25.9801 20.1603 25.9202 20.1185C25.8603 20.0768 25.7891 20.0543 25.7161 20.0541H23.4467Z" fill="white"/>
</svg>
